<?xml version="1.0" encoding="utf-8"?>
<!-- Generator: Adobe Illustrator 21.0.2, SVG Export Plug-In . SVG Version: 6.00 Build 0)  -->
<svg version="1.1" id="water-512_xA0_Image_1_" xmlns="http://www.w3.org/2000/svg" xmlns:xlink="http://www.w3.org/1999/xlink"
	 x="0px" y="0px" viewBox="0 0 53 23" style="enable-background:new 0 0 53 23;" xml:space="preserve">
<style type="text/css">
	.st0{fill:none;stroke:#000000;stroke-width:3;stroke-miterlimit:10;}
</style>
<g>
	<path class="st0" d="M0,9.9c5.3,0,5.3,3.2,10.6,3.2c5.3,0,5.3-3.2,10.6-3.2c5.3,0,5.3,3.2,10.6,3.2c5.3,0,5.3-3.2,10.6-3.2
		s5.3,3.2,10.6,3.2"/>
</g>
<g>
	<path class="st0" d="M0,16.9c5.3,0,5.3,3.2,10.6,3.2c5.3,0,5.3-3.2,10.6-3.2c5.3,0,5.3,3.2,10.6,3.2c5.3,0,5.3-3.2,10.6-3.2
		s5.3,3.2,10.6,3.2"/>
</g>
<g>
	<path class="st0" d="M0,2.9c5.3,0,5.3,3.2,10.6,3.2c5.3,0,5.3-3.2,10.6-3.2c5.3,0,5.3,3.2,10.6,3.2c5.3,0,5.3-3.2,10.6-3.2
		S47.7,6.1,53,6.1"/>
</g>
</svg>
